<svg width="16" height="16" viewBox="0 0 16 16" fill="none" xmlns="http://www.w3.org/2000/svg">
<path d="M12.7133 15.1667C12.3733 15.1667 12 15.0667 11.64 14.86L8.38668 13.0533C8.19335 12.9467 7.81335 12.9467 7.62002 13.0533L4.36668 14.86C3.70668 15.2267 3.03335 15.2667 2.52002 14.96C2.00668 14.66 1.71335 14.0533 1.71335 13.3V3.90667C1.71335 2.21334 3.09335 0.833336 4.78668 0.833336H11.22C12.9133 0.833336 14.2933 2.21334 14.2933 3.90667V13.3C14.2933 14.0533 14 14.66 13.4867 14.96C13.2533 15.1 12.9867 15.1667 12.7133 15.1667ZM8.00002 11.9733C8.31335 11.9733 8.62002 12.04 8.86668 12.18L12.12 13.9867C12.46 14.18 12.7733 14.22 12.9733 14.1C13.1733 13.98 13.2867 13.6933 13.2867 13.3V3.90667C13.2867 2.76667 12.3533 1.83334 11.2133 1.83334H4.78668C3.64668 1.83334 2.71335 2.76667 2.71335 3.90667V13.3C2.71335 13.6933 2.82668 13.9867 3.02668 14.1C3.22668 14.2133 3.53335 14.18 3.88002 13.9867L7.13335 12.18C7.38002 12.04 7.68668 11.9733 8.00002 11.9733Z" fill="white"/>
<path d="M12.7133 15.1667C12.3733 15.1667 12 15.0667 11.64 14.86L8.38668 13.0533C8.19335 12.9467 7.81335 12.9467 7.62002 13.0533L4.36668 14.86C3.70668 15.2267 3.03335 15.2667 2.52002 14.96C2.00668 14.66 1.71335 14.0533 1.71335 13.3V3.90667C1.71335 2.21334 3.09335 0.833336 4.78668 0.833336H11.22C12.9133 0.833336 14.2933 2.21334 14.2933 3.90667V13.3C14.2933 14.0533 14 14.66 13.4867 14.96C13.2533 15.1 12.9867 15.1667 12.7133 15.1667ZM8.00002 11.9733C8.31335 11.9733 8.62002 12.04 8.86668 12.18L12.12 13.9867C12.46 14.18 12.7733 14.22 12.9733 14.1C13.1733 13.98 13.2867 13.6933 13.2867 13.3V3.90667C13.2867 2.76667 12.3533 1.83334 11.2133 1.83334H4.78668C3.64668 1.83334 2.71335 2.76667 2.71335 3.90667V13.3C2.71335 13.6933 2.82668 13.9867 3.02668 14.1C3.22668 14.2133 3.53335 14.18 3.88002 13.9867L7.13335 12.18C7.38002 12.04 7.68668 11.9733 8.00002 11.9733Z" fill="white"/>
</svg>
