<svg width="20" height="20" viewBox="0 0 20 20" fill="none" xmlns="http://www.w3.org/2000/svg">
<path d="M15.8917 18.9583C15.4667 18.9583 15 18.8333 14.55 18.575L10.4833 16.3167C10.2417 16.1833 9.76666 16.1833 9.525 16.3167L5.45833 18.575C4.63333 19.0333 3.79166 19.0833 3.15 18.7C2.50833 18.325 2.14166 17.5667 2.14166 16.625V4.88332C2.14166 2.76666 3.86666 1.04166 5.98333 1.04166H14.025C16.1417 1.04166 17.8667 2.76666 17.8667 4.88332V16.625C17.8667 17.5667 17.5 18.325 16.8583 18.7C16.5667 18.875 16.2333 18.9583 15.8917 18.9583ZM10 14.9667C10.3917 14.9667 10.775 15.05 11.0833 15.225L15.15 17.4833C15.575 17.725 15.9667 17.775 16.2167 17.625C16.4667 17.475 16.6083 17.1167 16.6083 16.625V4.88332C16.6083 3.45832 15.4417 2.29166 14.0167 2.29166H5.98333C4.55833 2.29166 3.39166 3.45832 3.39166 4.88332V16.625C3.39166 17.1167 3.53333 17.4833 3.78333 17.625C4.03333 17.7667 4.41666 17.725 4.85 17.4833L8.91666 15.225C9.225 15.05 9.60833 14.9667 10 14.9667Z" fill="#222222"/>
<path d="M15.8917 18.9583C15.4667 18.9583 15 18.8333 14.55 18.575L10.4833 16.3167C10.2417 16.1833 9.76666 16.1833 9.525 16.3167L5.45833 18.575C4.63333 19.0333 3.79166 19.0833 3.15 18.7C2.50833 18.325 2.14166 17.5667 2.14166 16.625V4.88332C2.14166 2.76666 3.86666 1.04166 5.98333 1.04166H14.025C16.1417 1.04166 17.8667 2.76666 17.8667 4.88332V16.625C17.8667 17.5667 17.5 18.325 16.8583 18.7C16.5667 18.875 16.2333 18.9583 15.8917 18.9583ZM10 14.9667C10.3917 14.9667 10.775 15.05 11.0833 15.225L15.15 17.4833C15.575 17.725 15.9667 17.775 16.2167 17.625C16.4667 17.475 16.6083 17.1167 16.6083 16.625V4.88332C16.6083 3.45832 15.4417 2.29166 14.0167 2.29166H5.98333C4.55833 2.29166 3.39166 3.45832 3.39166 4.88332V16.625C3.39166 17.1167 3.53333 17.4833 3.78333 17.625C4.03333 17.7667 4.41666 17.725 4.85 17.4833L8.91666 15.225C9.225 15.05 9.60833 14.9667 10 14.9667Z" fill="#222222"/>
</svg>
