<svg width="18" height="18" viewBox="0 0 18 18" fill="none" xmlns="http://www.w3.org/2000/svg">
<path fill-rule="evenodd" clip-rule="evenodd" d="M9.0483 0.666877C6.12195 0.655117 3.40461 2.17251 1.88382 4.66676C0.362832 7.16133 0.260725 10.2689 1.6147 12.8576L1.76789 13.1563C1.82645 13.266 1.83774 13.3844 1.80381 13.4939C1.58502 14.0721 1.39279 14.6964 1.2394 15.3308L1.22312 15.4675C1.22312 16.1053 1.56345 16.5436 2.23891 16.5286L2.35139 16.515C2.96497 16.3795 3.56924 16.205 4.1605 15.9924C4.23887 15.9726 4.36724 15.9803 4.48308 16.0277L5.05186 16.3495C5.05314 16.3535 5.0541 16.3565 5.06005 16.36L5.09823 16.3733C8.16077 17.9836 11.901 17.5394 14.4998 15.2566C17.0989 12.9734 18.0166 9.32511 16.8063 6.08657C15.5961 2.84836 12.5096 0.692315 9.0483 0.666877ZM8.80623 1.83255L9.04029 1.82888C12.0192 1.85154 14.6757 3.7072 15.7171 6.49364C16.7583 9.27978 15.9688 12.4184 13.7324 14.383L13.5489 14.5388C11.3855 16.3151 8.38184 16.673 5.86057 15.4557L5.62079 15.3355L5.63107 15.3369L5.6159 15.3327L5.26397 15.1308C5.13725 15.0592 5.03672 15.0049 4.9557 14.9659C4.56974 14.8068 4.17794 14.7833 3.80944 14.8848L3.46059 15.0046C3.23003 15.0808 3.00309 15.1495 2.77726 15.2118L2.44805 15.2978L2.36962 15.6041C2.51182 15.016 2.69002 14.4372 2.90323 13.8709C3.04043 13.4319 2.99847 12.9921 2.79795 12.6169L2.64718 12.3228C1.48021 10.0916 1.56805 7.41828 2.87662 5.2721C4.14447 3.1927 6.37911 1.90199 8.80623 1.83255ZM4.39549 9.00018C4.39549 8.47501 4.82154 8.04965 5.34662 8.04965C5.87171 8.04965 6.29776 8.47501 6.29776 9.00018C6.29776 9.52535 5.87171 9.95071 5.34662 9.95071C4.82154 9.95071 4.39549 9.52535 4.39549 9.00018ZM8.09289 9.00018C8.09289 8.47501 8.51894 8.04965 9.04402 8.04965C9.56911 8.04965 9.99516 8.47501 9.99516 9.00018C9.99516 9.52535 9.56911 9.95071 9.04402 9.95071C8.51894 9.95071 8.09289 9.52535 8.09289 9.00018ZM12.7414 8.04965C12.2163 8.04965 11.7903 8.47501 11.7903 9.00018C11.7903 9.52535 12.2163 9.95071 12.7414 9.95071C13.2665 9.95071 13.6926 9.52535 13.6926 9.00018C13.6926 8.47501 13.2665 8.04965 12.7414 8.04965Z" fill="#222222"/>
</svg>
