<svg width="62" height="22" viewBox="0 0 62 22" fill="none" xmlns="http://www.w3.org/2000/svg">
<path d="M62 2C62 0.89543 61.1046 0 60 0H7.21237C6.46723 0 5.78388 0.414239 5.4392 1.07487L0.505424 10.5313C0.190449 11.135 0.204269 11.8575 0.54211 12.4487L5.42416 20.9923C5.78025 21.6154 6.44294 22 7.16065 22H60C61.1046 22 62 21.1046 62 20V2Z" fill="#34AFCA"/>
<path d="M19.776 6.624V15H18.096V11.436H14.508V15H12.828V6.624H14.508V10.068H18.096V6.624H19.776ZM26.5656 13.404H23.2296L22.6776 15H20.9136L23.9256 6.612H25.8816L28.8936 15H27.1176L26.5656 13.404ZM26.1096 12.06L24.8976 8.556L23.6856 12.06H26.1096ZM34.7714 10.704C35.2434 10.792 35.6314 11.028 35.9354 11.412C36.2394 11.796 36.3914 12.236 36.3914 12.732C36.3914 13.18 36.2794 13.576 36.0554 13.92C35.8394 14.256 35.5234 14.52 35.1074 14.712C34.6914 14.904 34.1994 15 33.6314 15H30.0194V6.624H33.4754C34.0434 6.624 34.5314 6.716 34.9394 6.9C35.3554 7.084 35.6674 7.34 35.8754 7.668C36.0914 7.996 36.1994 8.368 36.1994 8.784C36.1994 9.272 36.0674 9.68 35.8034 10.008C35.5474 10.336 35.2034 10.568 34.7714 10.704ZM31.6994 10.08H33.2354C33.6354 10.08 33.9434 9.992 34.1594 9.816C34.3754 9.632 34.4834 9.372 34.4834 9.036C34.4834 8.7 34.3754 8.44 34.1594 8.256C33.9434 8.072 33.6354 7.98 33.2354 7.98H31.6994V10.08ZM33.3914 13.632C33.7994 13.632 34.1154 13.536 34.3394 13.344C34.5714 13.152 34.6874 12.88 34.6874 12.528C34.6874 12.168 34.5674 11.888 34.3274 11.688C34.0874 11.48 33.7634 11.376 33.3554 11.376H31.6994V13.632H33.3914ZM39.4103 6.624V15H37.7303V6.624H39.4103ZM46.7702 6.624V7.98H44.5382V15H42.8582V7.98H40.6262V6.624H46.7702ZM50.888 15.084C50.304 15.084 49.776 14.984 49.304 14.784C48.84 14.584 48.472 14.296 48.2 13.92C47.928 13.544 47.788 13.1 47.78 12.588H49.58C49.604 12.932 49.724 13.204 49.94 13.404C50.164 13.604 50.468 13.704 50.852 13.704C51.244 13.704 51.552 13.612 51.776 13.428C52 13.236 52.112 12.988 52.112 12.684C52.112 12.436 52.036 12.232 51.884 12.072C51.732 11.912 51.54 11.788 51.308 11.7C51.084 11.604 50.772 11.5 50.372 11.388C49.828 11.228 49.384 11.072 49.04 10.92C48.704 10.76 48.412 10.524 48.164 10.212C47.924 9.892 47.804 9.468 47.804 8.94C47.804 8.444 47.928 8.012 48.176 7.644C48.424 7.276 48.772 6.996 49.22 6.804C49.668 6.604 50.18 6.504 50.756 6.504C51.62 6.504 52.32 6.716 52.856 7.14C53.4 7.556 53.7 8.14 53.756 8.892H51.908C51.892 8.604 51.768 8.368 51.536 8.184C51.312 7.992 51.012 7.896 50.636 7.896C50.308 7.896 50.044 7.98 49.844 8.148C49.652 8.316 49.556 8.56 49.556 8.88C49.556 9.104 49.628 9.292 49.772 9.444C49.924 9.588 50.108 9.708 50.324 9.804C50.548 9.892 50.86 9.996 51.26 10.116C51.804 10.276 52.248 10.436 52.592 10.596C52.936 10.756 53.232 10.996 53.48 11.316C53.728 11.636 53.852 12.056 53.852 12.576C53.852 13.024 53.736 13.44 53.504 13.824C53.272 14.208 52.932 14.516 52.484 14.748C52.036 14.972 51.504 15.084 50.888 15.084Z" fill="white"/>
</svg>
