<svg width="50" height="22" viewBox="0 0 50 22" fill="none" xmlns="http://www.w3.org/2000/svg">
<path d="M0 2C0 0.89543 0.895431 0 2 0H46.6309C48.149 0 49.1137 1.62496 48.3867 2.9577L44.5224 10.0423C44.1968 10.6393 44.1968 11.3607 44.5224 11.9577L48.3867 19.0423C49.1137 20.375 48.149 22 46.6309 22H2C0.895432 22 0 21.1046 0 20V2Z" fill="#F48221"/>
<path d="M13.992 15H12.312L8.508 9.252V15H6.828V6.612H8.508L12.312 12.372V6.612H13.992V15ZM17.3322 7.98V10.08H20.1522V11.412H17.3322V13.632H20.5122V15H15.6522V6.612H20.5122V7.98H17.3322ZM33.2349 6.624L30.8949 15H28.9149L27.3429 9.036L25.6989 15L23.7309 15.012L21.4749 6.624H23.2749L24.7509 13.128L26.4549 6.624H28.3269L29.9349 13.092L31.4229 6.624H33.2349ZM37.2239 15.084C36.6399 15.084 36.1119 14.984 35.6399 14.784C35.1759 14.584 34.8079 14.296 34.5359 13.92C34.2639 13.544 34.1239 13.1 34.1159 12.588H35.9159C35.9399 12.932 36.0599 13.204 36.2759 13.404C36.4999 13.604 36.8039 13.704 37.1879 13.704C37.5799 13.704 37.8879 13.612 38.1119 13.428C38.3359 13.236 38.4479 12.988 38.4479 12.684C38.4479 12.436 38.3719 12.232 38.2199 12.072C38.0679 11.912 37.8759 11.788 37.6439 11.7C37.4199 11.604 37.1079 11.5 36.7079 11.388C36.1639 11.228 35.7199 11.072 35.3759 10.92C35.0399 10.76 34.7479 10.524 34.4999 10.212C34.2599 9.892 34.1399 9.468 34.1399 8.94C34.1399 8.444 34.2639 8.012 34.5119 7.644C34.7599 7.276 35.1079 6.996 35.5559 6.804C36.0039 6.604 36.5159 6.504 37.0919 6.504C37.9559 6.504 38.6559 6.716 39.1919 7.14C39.7359 7.556 40.0359 8.14 40.0919 8.892H38.2439C38.2279 8.604 38.1039 8.368 37.8719 8.184C37.6479 7.992 37.3479 7.896 36.9719 7.896C36.6439 7.896 36.3799 7.98 36.1799 8.148C35.9879 8.316 35.8919 8.56 35.8919 8.88C35.8919 9.104 35.9639 9.292 36.1079 9.444C36.2599 9.588 36.4439 9.708 36.6599 9.804C36.8839 9.892 37.1959 9.996 37.5959 10.116C38.1399 10.276 38.5839 10.436 38.9279 10.596C39.2719 10.756 39.5679 10.996 39.8159 11.316C40.0639 11.636 40.1879 12.056 40.1879 12.576C40.1879 13.024 40.0719 13.44 39.8399 13.824C39.6079 14.208 39.2679 14.516 38.8199 14.748C38.3719 14.972 37.8399 15.084 37.2239 15.084Z" fill="white"/>
</svg>
