<svg width="62" height="22" viewBox="0 0 62 22" fill="none" xmlns="http://www.w3.org/2000/svg">
<path d="M62 2C62 0.89543 61.1046 0 60 0H7.21237C6.46723 0 5.78388 0.414239 5.4392 1.07487L0.505424 10.5313C0.190449 11.135 0.204269 11.8575 0.54211 12.4487L5.42416 20.9923C5.78025 21.6154 6.44294 22 7.16065 22H60C61.1046 22 62 21.1046 62 20V2Z" fill="#56D7FF"/>
<path d="M15.72 15.084C15.136 15.084 14.608 14.984 14.136 14.784C13.672 14.584 13.304 14.296 13.032 13.92C12.76 13.544 12.62 13.1 12.612 12.588H14.412C14.436 12.932 14.556 13.204 14.772 13.404C14.996 13.604 15.3 13.704 15.684 13.704C16.076 13.704 16.384 13.612 16.608 13.428C16.832 13.236 16.944 12.988 16.944 12.684C16.944 12.436 16.868 12.232 16.716 12.072C16.564 11.912 16.372 11.788 16.14 11.7C15.916 11.604 15.604 11.5 15.204 11.388C14.66 11.228 14.216 11.072 13.872 10.92C13.536 10.76 13.244 10.524 12.996 10.212C12.756 9.892 12.636 9.468 12.636 8.94C12.636 8.444 12.76 8.012 13.008 7.644C13.256 7.276 13.604 6.996 14.052 6.804C14.5 6.604 15.012 6.504 15.588 6.504C16.452 6.504 17.152 6.716 17.688 7.14C18.232 7.556 18.532 8.14 18.588 8.892H16.74C16.724 8.604 16.6 8.368 16.368 8.184C16.144 7.992 15.844 7.896 15.468 7.896C15.14 7.896 14.876 7.98 14.676 8.148C14.484 8.316 14.388 8.56 14.388 8.88C14.388 9.104 14.46 9.292 14.604 9.444C14.756 9.588 14.94 9.708 15.156 9.804C15.38 9.892 15.692 9.996 16.092 10.116C16.636 10.276 17.08 10.436 17.424 10.596C17.768 10.756 18.064 10.996 18.312 11.316C18.56 11.636 18.684 12.056 18.684 12.576C18.684 13.024 18.568 13.44 18.336 13.824C18.104 14.208 17.764 14.516 17.316 14.748C16.868 14.972 16.336 15.084 15.72 15.084ZM26.2485 9.216C26.2485 9.664 26.1405 10.084 25.9245 10.476C25.7165 10.868 25.3845 11.184 24.9285 11.424C24.4805 11.664 23.9125 11.784 23.2245 11.784H21.8205V15H20.1405V6.624H23.2245C23.8725 6.624 24.4245 6.736 24.8805 6.96C25.3365 7.184 25.6765 7.492 25.9005 7.884C26.1325 8.276 26.2485 8.72 26.2485 9.216ZM23.1525 10.428C23.6165 10.428 23.9605 10.324 24.1845 10.116C24.4085 9.9 24.5205 9.6 24.5205 9.216C24.5205 8.4 24.0645 7.992 23.1525 7.992H21.8205V10.428H23.1525ZM31.3293 15.084C30.5453 15.084 29.8253 14.9 29.1693 14.532C28.5133 14.164 27.9933 13.656 27.6093 13.008C27.2253 12.352 27.0333 11.612 27.0333 10.788C27.0333 9.972 27.2253 9.24 27.6093 8.592C27.9933 7.936 28.5133 7.424 29.1693 7.056C29.8253 6.688 30.5453 6.504 31.3293 6.504C32.1213 6.504 32.8413 6.688 33.4893 7.056C34.1453 7.424 34.6613 7.936 35.0373 8.592C35.4213 9.24 35.6133 9.972 35.6133 10.788C35.6133 11.612 35.4213 12.352 35.0373 13.008C34.6613 13.656 34.1453 14.164 33.4893 14.532C32.8333 14.9 32.1133 15.084 31.3293 15.084ZM31.3293 13.584C31.8333 13.584 32.2773 13.472 32.6613 13.248C33.0453 13.016 33.3453 12.688 33.5613 12.264C33.7773 11.84 33.8853 11.348 33.8853 10.788C33.8853 10.228 33.7773 9.74 33.5613 9.324C33.3453 8.9 33.0453 8.576 32.6613 8.352C32.2773 8.128 31.8333 8.016 31.3293 8.016C30.8253 8.016 30.3773 8.128 29.9853 8.352C29.6013 8.576 29.3013 8.9 29.0853 9.324C28.8693 9.74 28.7613 10.228 28.7613 10.788C28.7613 11.348 28.8693 11.84 29.0853 12.264C29.3013 12.688 29.6013 13.016 29.9853 13.248C30.3773 13.472 30.8253 13.584 31.3293 13.584ZM41.1832 15L39.3352 11.736H38.5432V15H36.8632V6.624H40.0072C40.6552 6.624 41.2072 6.74 41.6632 6.972C42.1192 7.196 42.4592 7.504 42.6832 7.896C42.9152 8.28 43.0312 8.712 43.0312 9.192C43.0312 9.744 42.8712 10.244 42.5512 10.692C42.2312 11.132 41.7552 11.436 41.1232 11.604L43.1272 15H41.1832ZM38.5432 10.476H39.9472C40.4032 10.476 40.7432 10.368 40.9672 10.152C41.1912 9.928 41.3032 9.62 41.3032 9.228C41.3032 8.844 41.1912 8.548 40.9672 8.34C40.7432 8.124 40.4032 8.016 39.9472 8.016H38.5432V10.476ZM50.2507 6.624V7.98H48.0187V15H46.3387V7.98H44.1067V6.624H50.2507ZM54.3684 15.084C53.7844 15.084 53.2564 14.984 52.7844 14.784C52.3204 14.584 51.9524 14.296 51.6804 13.92C51.4084 13.544 51.2684 13.1 51.2604 12.588H53.0604C53.0844 12.932 53.2044 13.204 53.4204 13.404C53.6444 13.604 53.9484 13.704 54.3324 13.704C54.7244 13.704 55.0324 13.612 55.2564 13.428C55.4804 13.236 55.5924 12.988 55.5924 12.684C55.5924 12.436 55.5164 12.232 55.3644 12.072C55.2124 11.912 55.0204 11.788 54.7884 11.7C54.5644 11.604 54.2524 11.5 53.8524 11.388C53.3084 11.228 52.8644 11.072 52.5204 10.92C52.1844 10.76 51.8924 10.524 51.6444 10.212C51.4044 9.892 51.2844 9.468 51.2844 8.94C51.2844 8.444 51.4084 8.012 51.6564 7.644C51.9044 7.276 52.2524 6.996 52.7004 6.804C53.1484 6.604 53.6604 6.504 54.2364 6.504C55.1004 6.504 55.8004 6.716 56.3364 7.14C56.8804 7.556 57.1804 8.14 57.2364 8.892H55.3884C55.3724 8.604 55.2484 8.368 55.0164 8.184C54.7924 7.992 54.4924 7.896 54.1164 7.896C53.7884 7.896 53.5244 7.98 53.3244 8.148C53.1324 8.316 53.0364 8.56 53.0364 8.88C53.0364 9.104 53.1084 9.292 53.2524 9.444C53.4044 9.588 53.5884 9.708 53.8044 9.804C54.0284 9.892 54.3404 9.996 54.7404 10.116C55.2844 10.276 55.7284 10.436 56.0724 10.596C56.4164 10.756 56.7124 10.996 56.9604 11.316C57.2084 11.636 57.3324 12.056 57.3324 12.576C57.3324 13.024 57.2164 13.44 56.9844 13.824C56.7524 14.208 56.4124 14.516 55.9644 14.748C55.5164 14.972 54.9844 15.084 54.3684 15.084Z" fill="white"/>
</svg>
