<svg width="74" height="22" viewBox="0 0 74 22" fill="none" xmlns="http://www.w3.org/2000/svg">
<path d="M0 2C0 0.89543 0.895431 0 2 0H70.6309C72.149 0 73.1137 1.62496 72.3867 2.9577L68.5224 10.0423C68.1968 10.6393 68.1968 11.3607 68.5224 11.9577L72.3867 19.0423C73.1137 20.375 72.149 22 70.6309 22H2C0.895429 22 0 21.1046 0 20V2Z" fill="#BD6EFF"/>
<path d="M12.528 6.624V7.98H10.296V15H8.616V7.98H6.384V6.624H12.528ZM18.0738 15L16.2258 11.736H15.4338V15H13.7538V6.624H16.8978C17.5458 6.624 18.0978 6.74 18.5538 6.972C19.0098 7.196 19.3498 7.504 19.5738 7.896C19.8058 8.28 19.9218 8.712 19.9218 9.192C19.9218 9.744 19.7618 10.244 19.4418 10.692C19.1218 11.132 18.6458 11.436 18.0138 11.604L20.0178 15H18.0738ZM15.4338 10.476H16.8378C17.2938 10.476 17.6338 10.368 17.8578 10.152C18.0818 9.928 18.1938 9.62 18.1938 9.228C18.1938 8.844 18.0818 8.548 17.8578 8.34C17.6338 8.124 17.2938 8.016 16.8378 8.016H15.4338V10.476ZM23.1213 7.98V10.08H25.9413V11.412H23.1213V13.632H26.3013V15H21.4413V6.612H26.3013V7.98H23.1213ZM34.992 15H33.312L29.508 9.252V15H27.828V6.612H29.508L33.312 12.372V6.612H34.992V15ZM39.5802 6.624C40.4602 6.624 41.2322 6.796 41.8962 7.14C42.5682 7.484 43.0842 7.976 43.4442 8.616C43.8122 9.248 43.9962 9.984 43.9962 10.824C43.9962 11.664 43.8122 12.4 43.4442 13.032C43.0842 13.656 42.5682 14.14 41.8962 14.484C41.2322 14.828 40.4602 15 39.5802 15H36.6522V6.624H39.5802ZM39.5202 13.572C40.4002 13.572 41.0802 13.332 41.5602 12.852C42.0402 12.372 42.2802 11.696 42.2802 10.824C42.2802 9.952 42.0402 9.272 41.5602 8.784C41.0802 8.288 40.4002 8.04 39.5202 8.04H38.3322V13.572H39.5202ZM46.9338 6.624V15H45.2538V6.624H46.9338ZM55.7576 15H54.0776L50.2736 9.252V15H48.5936V6.612H50.2736L54.0776 12.372V6.612H55.7576V15ZM63.2498 9.144C63.0578 8.792 62.7938 8.524 62.4578 8.34C62.1218 8.156 61.7298 8.064 61.2818 8.064C60.7858 8.064 60.3458 8.176 59.9618 8.4C59.5778 8.624 59.2778 8.944 59.0618 9.36C58.8458 9.776 58.7378 10.256 58.7378 10.8C58.7378 11.36 58.8458 11.848 59.0618 12.264C59.2858 12.68 59.5938 13 59.9858 13.224C60.3778 13.448 60.8338 13.56 61.3538 13.56C61.9938 13.56 62.5178 13.392 62.9258 13.056C63.3338 12.712 63.6018 12.236 63.7298 11.628H60.8498V10.344H65.3858V11.808C65.2738 12.392 65.0338 12.932 64.6658 13.428C64.2978 13.924 63.8218 14.324 63.2378 14.628C62.6618 14.924 62.0138 15.072 61.2938 15.072C60.4858 15.072 59.7538 14.892 59.0978 14.532C58.4498 14.164 57.9378 13.656 57.5618 13.008C57.1938 12.36 57.0098 11.624 57.0098 10.8C57.0098 9.976 57.1938 9.24 57.5618 8.592C57.9378 7.936 58.4498 7.428 59.0978 7.068C59.7538 6.7 60.4818 6.516 61.2818 6.516C62.2258 6.516 63.0458 6.748 63.7418 7.212C64.4378 7.668 64.9178 8.312 65.1818 9.144H63.2498Z" fill="#F8F9FD"/>
</svg>
