<svg width="16" height="16" viewBox="0 0 16 16" fill="none" xmlns="http://www.w3.org/2000/svg">
<path fill-rule="evenodd" clip-rule="evenodd" d="M8.00285 1.33334C6.04684 1.33334 4.46117 2.92576 4.46117 4.89012C4.46117 6.85448 6.04684 8.4469 8.00285 8.4469C9.95887 8.4469 11.5445 6.85448 11.5445 4.89012C11.5445 2.92576 9.95887 1.33334 8.00285 1.33334ZM8.00285 2.29845C9.42812 2.29845 10.5835 3.45878 10.5835 4.89012C10.5835 6.32146 9.42812 7.48179 8.00285 7.48179C6.57759 7.48179 5.42219 6.32146 5.42219 4.89012C5.42219 3.45878 6.57759 2.29845 8.00285 2.29845ZM6.55336 9.88059C6.03488 9.91659 5.5108 9.9906 4.99386 10.1014C3.99611 10.3069 3.19789 10.7175 2.85815 11.3999C2.73001 11.6668 2.66558 11.9525 2.66667 12.2418C2.66629 12.529 2.73019 12.8151 2.85374 13.0769C3.17995 13.7514 3.88519 14.1331 4.83748 14.3447L5.00807 14.3803C5.51098 14.4938 6.03522 14.5702 6.56297 14.606C6.60791 14.6192 6.71504 14.6315 6.83196 14.6374L6.92814 14.641C6.97759 14.6422 7.03371 14.6425 7.11733 14.6425C7.87589 14.6842 8.66227 14.672 9.445 14.6054C9.86212 14.5769 10.2821 14.5223 10.6985 14.4424L11.01 14.3777C12.0384 14.1748 12.8084 13.7891 13.1457 13.0776C13.3958 12.5494 13.3958 11.9365 13.1458 11.4085C12.8093 10.6988 12.0491 10.3163 11.0022 10.1006C10.5915 10.0129 10.1741 9.94803 9.75377 9.9066L9.44646 9.88059C8.48394 9.79568 7.51587 9.79568 6.55336 9.88059ZM9.36236 10.842L9.37081 10.8427C9.85324 10.8766 10.3327 10.9443 10.8058 11.0453C11.5834 11.2055 12.1111 11.4711 12.278 11.8232C12.4038 12.0887 12.4038 12.3972 12.2779 12.6629C12.1219 12.9919 11.648 13.2461 10.963 13.4014L10.813 13.4332C10.3306 13.5408 9.85274 13.6102 9.37169 13.6431C8.62527 13.7066 7.88328 13.7181 7.14316 13.6781L6.88076 13.6736C6.80792 13.6698 6.74652 13.6628 6.68963 13.6514C6.23913 13.6174 5.83376 13.5636 5.44016 13.4856L5.20515 13.4358C4.42512 13.2829 3.89275 13.0162 3.72014 12.6593C3.65974 12.5313 3.62748 12.3869 3.62767 12.2406C3.62713 12.0952 3.65897 11.954 3.72077 11.8252C3.8886 11.4883 4.45278 11.198 5.19069 11.046C5.66714 10.9439 6.14639 10.8763 6.62861 10.8427C7.544 10.762 8.4558 10.762 9.36236 10.842Z" fill="white"/>
</svg>
